<svg width="500" height="500" viewBox="0 0 500 500" fill="none" xmlns="http://www.w3.org/2000/svg">
<rect width="500" height="500" fill="#3C40C6"/>
<path d="M229.901 90.7509C220.165 92.1159 202.412 96.4384 196.112 99.0546C191.645 100.875 191.645 100.875 193.821 103.491C194.967 104.856 211.689 123.283 231.161 144.327C257.39 172.765 266.897 182.434 268.386 181.979C269.76 181.637 271.249 178.794 272.967 173.22C275.602 165.03 282.016 152.972 287.628 145.465C289.575 143.076 291.523 141.825 293.355 141.825C297.364 141.825 307.787 148.877 313.285 155.361C322.104 165.485 329.32 182.547 329.32 193.126C329.32 196.994 329.778 197.562 337.109 202.226C347.188 208.71 365.285 226.683 371.928 236.806C383.611 254.665 393.805 279.918 397.012 299.028C397.814 303.805 398.845 307.559 399.418 307.218C400.677 306.422 405.603 289.473 408.008 277.757C410.757 263.765 410.642 236.124 407.779 221.45C395.18 155.475 345.012 104.97 279.84 92.3434C268.271 90.0684 241.355 89.2721 229.901 90.7509Z" fill="white"/>
<path d="M161.117 116.953C132.693 135.644 108.873 166.456 98.0553 198.628C92.0714 216.639 90 229.44 90 250.17C90.1151 277.47 94.488 297.067 105.996 320.403C128.435 366.168 171.934 398.679 222.798 407.741C233.155 409.667 269.979 410.8 271.59 409.327C271.936 408.987 272.741 402.077 273.432 394.035C275.733 367.414 274.697 314.399 271.705 309.755C271.475 309.302 266.987 309.641 261.694 310.548C249.841 312.587 236.607 311.227 223.258 306.696C207.493 301.259 195.985 303.638 183.327 314.852C163.188 332.637 143.395 329.918 132.233 307.829C128.666 300.579 127.975 297.974 127.515 290.044C126.939 277.357 129.011 273.845 145.812 258.779C170.208 236.916 194.259 219.131 216.008 206.784C221.187 203.838 225.445 201.12 225.56 200.667C225.675 199.647 169.403 112.535 168.597 112.535C168.137 112.535 164.8 114.574 161.117 116.953Z" fill="white"/>
</svg>
